# xmcd
#
# Track frame offsets:
#	150
#	15124
#	33720
#	52442
#	71309
#	86875
#	103957
#	121838
#	139731
#	154029
#	170964
#	184623
#
# Disc length: 2697 seconds
# Revision: 0
# Processed by: cddbd v1.5.2PL0 Copyright (c) Steve Scherf et al.
# Submitted via: dBpowerAMP V12.0
#
DISCID=a70a870c
DTITLE=Shannon LaBrie - Just Be Honest
DYEAR=2013
DGENRE=Singer/Songwriter
TTITLE0=Secret
TTITLE1=Lion's Cage
TTITLE2=Heartache of Love
TTITLE3=Just Be Honest
TTITLE4=I Remember a Boy
TTITLE5=Love Somebody
TTITLE6=How Does It Feel
TTITLE7=Getting Tired
TTITLE8=Slow Dance
TTITLE9=Take Me
TTITLE10=Headlines
TTITLE11=Last to Know
EXTD=
EXTT0=
EXTT1=
EXTT2=
EXTT3=
EXTT4=
EXTT5=
EXTT6=
EXTT7=
EXTT8=
EXTT9=
EXTT10=
EXTT11=
PLAYORDER=
